<?xml version="1.0" encoding="UTF-8"?>
<!DOCTYPE svg PUBLIC "-//W3C//DTD SVG 1.1//EN" "http://www.w3.org/Graphics/SVG/1.1/DTD/svg11.dtd">
<!-- Creator: CorelDRAW -->
<svg xmlns="http://www.w3.org/2000/svg" xml:space="preserve" width="16mm" height="10mm" version="1.1" style="shape-rendering:geometricPrecision; text-rendering:geometricPrecision; image-rendering:optimizeQuality; fill-rule:evenodd; clip-rule:evenodd"
viewBox="0 0 49.25 30.78"
 xmlns:xlink="http://www.w3.org/1999/xlink"
 xmlns:xodm="http://www.corel.com/coreldraw/odm/2003">
 <defs>
  <style type="text/css">
   <![CDATA[
    .fil0 {fill:black}
   ]]>
  </style>
 </defs>
 <g id="Camada_x0020_1">
  <metadata id="CorelCorpID_0Corel-Layer"/>
  <g id="_1809682772992">
   <path class="fil0" d="M34.92 26.74l6.06 0 0 1.92 -6.06 0 0 -1.92zm-34.92 -14.04l0 -0.82c0.05,-0.44 0.17,-0.88 0.38,-1.3 0.24,-0.48 0.41,-0.66 0.68,-1.06 -0.21,-0.43 -1.06,-2.94 -1.06,-3.46 0,-0.69 0.76,-0.94 1.25,-1.15 0.6,-0.26 1.36,-0.68 1.92,-0.68 0.91,0 1.57,1.89 2.15,3.05 0.5,1.01 0.46,1.22 1.02,1.58 0.15,0.09 0.62,0.45 0.75,0.6 0.1,0.11 0.21,0.26 0.3,0.38 0.19,0.25 0.13,0.06 0.21,0.37 4.01,0 8.02,0 12.02,0 4.26,0 3.22,0.39 4.83,-1.23 0.51,-0.51 2.57,-2.81 3.15,-2.81 4.25,0 3.65,-0.4 4.78,1.86 0.27,0.54 0.98,1.79 1.09,2.28 4.11,0 8.79,2.29 11.76,5.07l0.92 0.82c0.3,0.29 0.48,0.56 0.77,0.87 1.15,1.24 2.33,3.02 2.33,4.79 0,2.77 -3.68,4.81 -6.16,4.81l0 2.02c1.47,0 1.88,-0.03 3.24,-0.7 1.09,-0.54 1.11,-1.32 1.86,-1.32 0.55,0 1.06,0.41 1.06,0.96 0,1.78 -3.61,3.17 -5.19,3.17l-20.68 0c-0.24,0 -0.56,-0.31 -0.66,-0.5 -0.39,-0.68 -0.05,-1.62 1.34,-1.62l8.75 0 0 -1.92 -4.23 0c-2.11,0 -3.34,-0.3 -4.84,-1.41 -0.83,-0.62 -1.42,-1.32 -2.03,-2.1l-0.84 -1.18c-0.29,-0.45 -0.52,-0.83 -0.81,-1.31 -1.14,-1.93 -0.91,-2.61 -2.67,-3.49 -0.96,-0.48 -1.9,-0.8 -2.99,-1.15 -1.37,-0.45 -3.58,-0.96 -5.01,-1.25 -1.73,-0.35 -1.63,-0.56 -2.17,0.15 -0.31,0.42 -0.73,0.63 -1.06,0.87 -0.67,0.49 -0.87,2.59 -1.93,2.59 -2.17,0 -2.21,0.17 -2.21,-2.6 -1.17,-0.78 -1.89,-1.94 -2.02,-3.17zm34.24 -0.29c2.3,0.19 4.68,1.16 6.62,2.33 2.05,1.23 4.77,3.64 5.88,5.75l-7.7 0c-3.15,0 -3.24,-3.27 -4.19,-6.1l-0.61 -1.98z"/>
   <path class="fil0" d="M28.66 1.44l0 0.58 -17.22 0c-1.61,0 -1.61,2.12 0,2.12l36.74 0c1.41,0 1.41,-2.12 0,-2.12l-17.41 0c0,-1.05 0.19,-2.02 -1.25,-2.02 -0.52,0 -0.87,0.73 -0.87,1.44z"/>
  </g>
 </g>
</svg>
